<svg xmlns="http://www.w3.org/2000/svg" width="300" height="300" viewBox="0 0 120 120">
  <defs>
    <linearGradient id="pythonGauge" x1="0" x2="1">
      <stop offset="0" stop-color="#306998"/> <stop offset="1" stop-color="#4B8BBE"/> </linearGradient>
  </defs>
  
  <rect width="120" height="120" rx="12" fill="#0f1720"/>
  
  <g transform="translate(60,60)">
    
    <circle r="30" fill="none" stroke="#202428" stroke-width="10"/>
    
    <circle r="30" fill="none" stroke="url(#pythonGauge)" stroke-width="10" stroke-linecap="round"
            stroke-dasharray="188.49555921538757" 
            stroke-dashoffset="47.1238898038469"
            transform="rotate(-90)"/>
            
    <circle r="20" fill="#0b1220" />
    
    <text x="0" y="-10" font-family="Arial" font-size="12" fill="#d7f2ff" font-weight="700" text-anchor="middle">75%</text>
    
    <g transform="translate(-10, 0)">
        <path d="M 0 0 C -10 0, -10 -5, 0 -5 L 5 -5 C 10 -5, 10 -10, 5 -10 L -5 -10 C -10 -10, -10 -15, -5 -15" 
              stroke="#4B8BBE" stroke-width="2" fill="none" stroke-linecap="round"/>
        <path d="M 10 5 C 20 5, 20 10, 10 10 L 5 10 C 0 10, 0 15, 5 15 L 15 15 C 20 15, 20 20, 15 20" 
              stroke="#FFD43B" stroke-width="2" fill="none" stroke-linecap="round"/>
    </g>
    
    <text x="0" y="25" font-family="Arial" font-size="8" fill="#FFD43B" font-weight="bold" text-anchor="middle">PYTHON</text>
    
  </g>
</svg>
