<?xml version="1.0" encoding="utf-8"?>
<!-- Generator: Adobe Illustrator 26.0.2, SVG Export Plug-In . SVG Version: 6.00 Build 0)  -->
<svg version="1.1" id="Calque_1" xmlns="http://www.w3.org/2000/svg" xmlns:xlink="http://www.w3.org/1999/xlink" x="0px" y="0px"
	 viewBox="0 0 256 256" style="enable-background:new 0 0 256 256;" xml:space="preserve">
<style type="text/css">
	.st0{clip-path:url(#SVGID_00000169557718593377833490000007348816215823483581_);}
	.st1{fill:#242938;}
	.st2{fill:#FF6902;}
	.st3{fill:#FF9548;}
	.st4{fill:#FFFEFE;}
	.st5{fill:#933B00;}
</style>
<g>
	<defs>
		<rect id="SVGID_1_" y="0" width="256" height="256"/>
	</defs>
	<clipPath id="SVGID_00000050625987595704853460000002411492432068987309_">
		<use xlink:href="#SVGID_1_"  style="overflow:visible;"/>
	</clipPath>
	<g style="clip-path:url(#SVGID_00000050625987595704853460000002411492432068987309_);">
		<path class="st1" d="M196,0H60C26.9,0,0,26.9,0,60v136c0,33.1,26.9,60,60,60h136c33.1,0,60-26.9,60-60V60C256,26.9,229.1,0,196,0z
			"/>
	</g>
</g>
<path class="st2" d="M115.9,76.6c0,24.4,0.1,48.8,0,73.3c6.2,0.7,12.6,0.9,18.8-0.2c-0.3-9.6,0-19.3-0.2-28.9
	c7.9-0.9,15.9-0.2,23.9-0.4c-0.1-4.3-0.1-8.5,0-12.8c-7.9,0-15.9,0.1-23.9-0.1c-0.1-5.8-0.1-11.6,0-17.3c9.5,0,18.9,0,28.4,0
	c0-4.5,0-9.1,0-13.6C147.2,76.7,131.6,76.5,115.9,76.6 M68.1,46.6h125.7c4.8,0.2,9.7,3.7,10,8.8c0.3,7.1,0,14.3,0.1,21.4
	c0.1,34.3,0,68.5,0,102.8c-39.3,0-78.7,0-118,0c-5.9,0.2-11.8,0.5-17.7,0c-0.3-44.3-0.1-88.6-0.1-132.9L68.1,46.6L68.1,46.6z"/>
<path class="st3" d="M39,64.3c9.6-6,19.3-11.8,29-17.5c0,44.3-0.2,88.6,0.1,132.9c-4.5,2.6-8.9,5.4-13.4,8
	c-5.3,3.1-10.5,6.4-15.8,9.5V64.3z"/>
<path class="st4" d="M115.9,76.6c15.7-0.1,31.3,0,47-0.1c0,4.5,0,9.1,0,13.6c-9.5-0.1-18.9,0-28.4,0c0,5.8-0.1,11.6,0,17.3
	c8,0.1,15.9,0,23.9,0.1c-0.1,4.3-0.1,8.5,0,12.8c-8,0.2-16-0.4-23.9,0.4c0.2,9.6-0.1,19.3,0.2,28.9c-6.2,1.1-12.6,0.9-18.8,0.2
	C116,125.5,115.9,101.1,115.9,76.6"/>
<path class="st5" d="M203.9,76.8c4.4,0,8.7,0,13.1,0c-0.1,44.2,0,88.4,0,132.6H63.7c-4-0.6-7.9-3.3-8.7-7.4
	c-0.8-4.7-0.2-9.6-0.2-14.4c4.5-2.6,8.9-5.4,13.4-8c5.9,0.5,11.8,0.2,17.7,0c39.3-0.1,78.7,0,118,0
	C203.9,145.4,204,111.1,203.9,76.8"/>
</svg>
